<svg xmlns="http://www.w3.org/2000/svg" xml:space="preserve" width="64" height="64" style="shape-rendering:geometricPrecision;text-rendering:geometricPrecision;image-rendering:optimizeQuality;fill-rule:evenodd;clip-rule:evenodd" viewBox="0 0 6.827 6.827"><defs><style>.fil0{fill:#333;fill-rule:nonzero}</style></defs><g id="Layer_x0020_1"><g id="_443095344"><path id="_443095128" class="fil0" d="m4.44 5.76.657-4.285H1.73l.656 4.285H4.44zm.886-4.375-.688 4.494a.107.107 0 0 1-.106.094H2.295a.107.107 0 0 1-.106-.09l.105-.016-.105.015L1.5 1.39a.107.107 0 0 1 .105-.127H5.22l.017.001a.107.107 0 0 1 .09.122z"/><path id="_443095080" class="fil0" d="M1.23 1.262a.107.107 0 0 0 0 .213h4.366a.107.107 0 0 0 0-.213H1.231z"/><path id="_443095416" class="fil0" d="M2.983.853h.86c.06 0 .108.048.108.107v.408a.107.107 0 0 1-.107.107h-.861a.107.107 0 0 1-.107-.107V.96c0-.059.048-.107.107-.107zm.754.214H3.09v.195h.648v-.195z"/><path id="_443095104" class="fil0" d="M2.848 2.517a.107.107 0 0 0-.213 0v2.2a.107.107 0 0 0 .213 0v-2.2z"/><path id="_443095032" class="fil0" d="M3.52 2.517a.107.107 0 0 0-.213 0v2.2a.107.107 0 0 0 .213 0v-2.2z"/><path id="_443095296" class="fil0" d="M4.192 2.517a.107.107 0 0 0-.213 0v2.2a.107.107 0 0 0 .213 0v-2.2z"/></g><path d="M3.979 2.517a.107.107 0 0 1 .213 0v2.2a.107.107 0 0 1-.213 0v-2.2zm-.566-.106c.06 0 .107.047.107.106v2.2a.107.107 0 0 1-.213 0v-2.2c0-.059.047-.106.106-.106zm-.672 0c.06 0 .107.047.107.106v2.2a.107.107 0 0 1-.213 0v-2.2c0-.059.047-.106.106-.106zm1.7 3.349.656-4.285H1.73l.656 4.285H4.44z" style="fill:#949494"/></g><path style="fill:none" d="M0 0h6.827v6.827H0z"/></svg>